<svg xmlns="http://www.w3.org/2000/svg" xmlns:xlink="http://www.w3.org/1999/xlink" width="32" height="32" viewBox="0 0 32 32"><defs><clipPath id="b"><rect width="32" height="32"/></clipPath></defs><g id="a" clip-path="url(#b)"><path d="M15.853,0A15.853,15.853,0,1,0,31.706,15.853,15.853,15.853,0,0,0,15.853,0Zm-.24,3.148A2.051,2.051,0,1,1,13.565,5.2,2.052,2.052,0,0,1,15.612,3.148ZM24.5,9.769l-6.1.771,0,6.105,2.955,9.864a1.149,1.149,0,0,1-.835,1.4,1.135,1.135,0,0,1-1.4-.808l-3.027-8.979H15.16l-2.785,9.165a1.143,1.143,0,0,1-1.5.64,1.194,1.194,0,0,1-.719-1.5l2.558-9.68V10.54L7.1,9.775a1.02,1.02,0,0,1-.921-1.131A1.061,1.061,0,0,1,7.32,7.678l6.827.588h2.994l7.27-.6a1.052,1.052,0,0,1,.086,2.1Z" transform="translate(0.1 0.1)" fill="#35363a"/></g></svg>